<?xml version="1.0" encoding="UTF-8" standalone="no"?>
<svg xmlns="http://www.w3.org/2000/svg" width="800" height="600" viewBox="0 0 800 600">
  <defs>
    <linearGradient id="grad1" x1="0%" y1="0%" x2="100%" y2="100%">
      <stop offset="0%" style="stop-color:#2563eb;stop-opacity:1" />
      <stop offset="100%" style="stop-color:#1d4ed8;stop-opacity:1" />
    </linearGradient>
    <linearGradient id="grad2" x1="0%" y1="0%" x2="100%" y2="100%">
      <stop offset="0%" style="stop-color:#10b981;stop-opacity:1" />
      <stop offset="100%" style="stop-color:#059669;stop-opacity:1" />
    </linearGradient>
  </defs>
  
  <!-- Background elements -->
  <rect x="50" y="100" width="700" height="400" rx="20" ry="20" fill="#f8fafc" />
  <circle cx="150" cy="150" r="80" fill="url(#grad1)" opacity="0.1" />
  <circle cx="650" cy="450" r="100" fill="url(#grad2)" opacity="0.1" />
  
  <!-- Dashboard elements -->
  <rect x="100" y="150" width="250" height="150" rx="10" ry="10" fill="white" stroke="#e2e8f0" stroke-width="2" />
  <rect x="110" y="170" width="230" height="20" rx="5" ry="5" fill="#2563eb" opacity="0.2" />
  <rect x="110" y="200" width="180" height="10" rx="5" ry="5" fill="#64748b" opacity="0.2" />
  <rect x="110" y="220" width="200" height="10" rx="5" ry="5" fill="#64748b" opacity="0.2" />
  <rect x="110" y="240" width="160" height="10" rx="5" ry="5" fill="#64748b" opacity="0.2" />
  <rect x="110" y="260" width="190" height="10" rx="5" ry="5" fill="#64748b" opacity="0.2" />
  
  <!-- Chart element -->
  <rect x="380" y="150" width="320" height="150" rx="10" ry="10" fill="white" stroke="#e2e8f0" stroke-width="2" />
  <polyline points="400,260 440,220 480,240 520,180 560,200 600,150 640,170 680,130" 
           fill="none" stroke="#2563eb" stroke-width="3" />
  <circle cx="400" cy="260" r="5" fill="#2563eb" />
  <circle cx="440" cy="220" r="5" fill="#2563eb" />
  <circle cx="480" cy="240" r="5" fill="#2563eb" />
  <circle cx="520" cy="180" r="5" fill="#2563eb" />
  <circle cx="560" cy="200" r="5" fill="#2563eb" />
  <circle cx="600" cy="150" r="5" fill="#2563eb" />
  <circle cx="640" cy="170" r="5" fill="#2563eb" />
  <circle cx="680" cy="130" r="5" fill="#2563eb" />
  
  <!-- AI elements -->
  <rect x="100" y="330" width="600" height="120" rx="10" ry="10" fill="white" stroke="#e2e8f0" stroke-width="2" />
  <circle cx="150" cy="380" r="30" fill="url(#grad1)" opacity="0.7" />
  <text x="150" y="385" font-family="Arial" font-size="20" fill="white" text-anchor="middle">AI</text>
  
  <!-- Connection lines -->
  <line x1="180" y1="380" x2="230" y2="380" stroke="#64748b" stroke-width="2" stroke-dasharray="5,5" />
  <polygon points="240,380 230,375 230,385" fill="#64748b" />
  
  <rect x="250" y="360" width="120" height="40" rx="5" ry="5" fill="#f1f5f9" />
  <text x="310" y="385" font-family="Arial" font-size="12" fill="#1e293b" text-anchor="middle">Data Processing</text>
  
  <line x1="370" y1="380" x2="420" y2="380" stroke="#64748b" stroke-width="2" stroke-dasharray="5,5" />
  <polygon points="430,380 420,375 420,385" fill="#64748b" />
  
  <rect x="440" y="360" width="120" height="40" rx="5" ry="5" fill="#f1f5f9" />
  <text x="500" y="385" font-family="Arial" font-size="12" fill="#1e293b" text-anchor="middle">Analysis</text>
  
  <line x1="560" y1="380" x2="610" y2="380" stroke="#64748b" stroke-width="2" stroke-dasharray="5,5" />
  <polygon points="620,380 610,375 610,385" fill="#64748b" />
  
  <circle cx="650" cy="380" r="30" fill="url(#grad2)" opacity="0.7" />
  <text x="650" y="385" font-family="Arial" font-size="16" fill="white" text-anchor="middle">✓</text>
  
  <!-- EXCEED Logo -->
  <text x="400" y="80" font-family="Arial" font-weight="bold" font-size="40" fill="#2563eb" text-anchor="middle">EXCEED</text>
  <text x="400" y="105" font-family="Arial" font-size="14" fill="#64748b" text-anchor="middle">Exceed Client Expectations Every Day</text>
</svg>
